<svg xmlns="http://www.w3.org/2000/svg" xmlns:xlink="http://www.w3.org/1999/xlink" width="140" zoomAndPan="magnify" viewBox="0 0 104.88 40.499999" height="54" preserveAspectRatio="xMidYMid meet" version="1.0"><defs><g/><clipPath id="3d6363a318"><path d="M 15 10 L 32.734375 10 L 32.734375 35.710938 L 15 35.710938 Z M 15 10 " clip-rule="nonzero"/></clipPath><clipPath id="3f37d35a68"><path d="M 4.582031 4.59375 L 23 4.59375 L 23 30 L 4.582031 30 Z M 4.582031 4.59375 " clip-rule="nonzero"/></clipPath></defs><g clip-path="url(#3d6363a318)"><path fill="#ffffff" d="M 32.867188 35.285156 C 32.054688 33.988281 31.238281 32.691406 30.425781 31.394531 L 27.972656 27.511719 L 25.511719 23.632812 L 23.203125 19.996094 L 26.175781 15.632812 L 26.957031 14.484375 C 27.21875 14.105469 27.480469 13.722656 27.742188 13.339844 L 29.324219 11.054688 L 29.964844 10.132812 L 21.535156 10.078125 L 21.355469 10.394531 C 21.097656 10.859375 20.84375 11.328125 20.585938 11.792969 L 20.394531 12.144531 L 20.207031 12.496094 L 19.824219 13.199219 L 19.074219 14.609375 L 18.691406 15.335938 C 18.546875 15.117188 18.398438 14.894531 18.253906 14.671875 L 17.804688 14.003906 L 16.898438 12.667969 L 16.441406 12.003906 C 16.132812 11.5625 15.820312 11.125 15.503906 10.6875 C 15.484375 10.648438 15.453125 10.640625 15.414062 10.664062 C 15.378906 10.6875 15.371094 10.714844 15.390625 10.753906 C 15.621094 11.238281 15.859375 11.722656 16.101562 12.203125 L 16.464844 12.925781 L 16.832031 13.644531 L 17.574219 15.074219 C 17.828125 15.546875 18.078125 16.023438 18.332031 16.496094 L 18.703125 17.179688 L 19.140625 16.492188 C 19.425781 16.042969 19.707031 15.589844 19.988281 15.136719 L 20.828125 13.78125 L 21.246094 13.097656 L 21.660156 12.417969 C 21.871094 12.074219 22.078125 11.730469 22.285156 11.382812 C 22.453125 11.382812 27.492188 11.363281 27.691406 11.359375 L 26.824219 12.734375 C 26.578125 13.125 26.328125 13.515625 26.078125 13.90625 L 25.332031 15.074219 L 22.335938 19.753906 L 22.179688 19.996094 L 22.335938 20.222656 L 24.933594 24.015625 L 27.535156 27.800781 L 28.835938 29.691406 L 30.144531 31.582031 C 31.011719 32.84375 31.886719 34.101562 32.761719 35.359375 C 32.785156 35.394531 32.816406 35.398438 32.851562 35.375 C 32.886719 35.351562 32.890625 35.324219 32.867188 35.289062 Z M 32.867188 35.285156 " fill-opacity="1" fill-rule="nonzero"/></g><g clip-path="url(#3f37d35a68)"><path fill="#ffffff" d="M 21.371094 27.773438 L 21.007812 27.050781 L 20.640625 26.335938 L 20.269531 25.617188 L 19.894531 24.902344 C 19.644531 24.429688 19.390625 23.953125 19.136719 23.480469 L 18.769531 22.796875 L 18.332031 23.488281 C 18.042969 23.9375 17.765625 24.390625 17.480469 24.839844 L 16.640625 26.199219 L 16.222656 26.878906 L 15.808594 27.558594 C 15.601562 27.90625 15.394531 28.25 15.1875 28.59375 C 15.023438 28.59375 9.980469 28.617188 9.78125 28.621094 L 10.644531 27.242188 C 10.890625 26.851562 11.144531 26.460938 11.390625 26.074219 L 12.140625 24.902344 L 15.132812 20.222656 L 15.289062 19.980469 L 15.132812 19.753906 L 12.539062 15.972656 L 9.933594 12.195312 L 8.632812 10.304688 L 7.328125 8.417969 C 6.457031 7.160156 5.585938 5.90625 4.710938 4.652344 C 4.6875 4.617188 4.65625 4.613281 4.621094 4.632812 C 4.585938 4.65625 4.578125 4.6875 4.601562 4.722656 C 5.417969 6.015625 6.230469 7.3125 7.046875 8.605469 L 8.269531 10.546875 L 9.496094 12.480469 L 11.957031 16.355469 L 14.265625 19.980469 L 11.296875 24.34375 L 10.511719 25.492188 C 10.25 25.875 9.992188 26.257812 9.726562 26.636719 L 8.148438 28.921875 L 7.507812 29.84375 L 15.9375 29.902344 L 16.117188 29.582031 C 16.375 29.117188 16.628906 28.648438 16.886719 28.183594 L 17.269531 27.480469 L 17.648438 26.777344 L 18.394531 25.367188 L 18.777344 24.640625 L 19.21875 25.304688 L 19.664062 25.976562 L 20.117188 26.644531 L 20.570312 27.308594 L 21.027344 27.972656 C 21.335938 28.414062 21.648438 28.855469 21.964844 29.289062 C 21.988281 29.320312 22.015625 29.328125 22.050781 29.308594 C 22.082031 29.289062 22.089844 29.261719 22.074219 29.226562 C 21.847656 28.738281 21.613281 28.257812 21.371094 27.773438 Z M 21.371094 27.773438 " fill-opacity="1" fill-rule="nonzero"/></g><g fill="#ffffff" fill-opacity="1"><g transform="translate(32.017268, 24.448169)"><g><path d="M 2.328125 -8.609375 L 2.328125 -5.390625 L 5.828125 -5.390625 L 5.828125 -4.359375 L 2.328125 -4.359375 L 2.328125 -1.03125 L 6.25 -1.03125 L 6.25 0 L 1.0625 0 L 1.0625 -9.65625 L 6.25 -9.65625 L 6.25 -8.609375 Z M 2.328125 -8.609375 "/></g></g></g><g fill="#ffffff" fill-opacity="1"><g transform="translate(43.256517, 24.448169)"><g><path d="M 0.59375 -4.828125 C 0.59375 -5.765625 0.800781 -6.609375 1.21875 -7.359375 C 1.644531 -8.109375 2.222656 -8.695312 2.953125 -9.125 C 3.691406 -9.550781 4.507812 -9.765625 5.40625 -9.765625 C 6.457031 -9.765625 7.375 -9.507812 8.15625 -9 C 8.9375 -8.488281 9.507812 -7.769531 9.875 -6.84375 L 8.359375 -6.84375 C 8.097656 -7.425781 7.710938 -7.875 7.203125 -8.1875 C 6.703125 -8.5 6.101562 -8.65625 5.40625 -8.65625 C 4.726562 -8.65625 4.125 -8.5 3.59375 -8.1875 C 3.0625 -7.875 2.640625 -7.425781 2.328125 -6.84375 C 2.023438 -6.269531 1.875 -5.597656 1.875 -4.828125 C 1.875 -4.054688 2.023438 -3.382812 2.328125 -2.8125 C 2.640625 -2.238281 3.0625 -1.796875 3.59375 -1.484375 C 4.125 -1.171875 4.726562 -1.015625 5.40625 -1.015625 C 6.101562 -1.015625 6.703125 -1.164062 7.203125 -1.46875 C 7.710938 -1.78125 8.097656 -2.226562 8.359375 -2.8125 L 9.875 -2.8125 C 9.507812 -1.882812 8.9375 -1.171875 8.15625 -0.671875 C 7.375 -0.171875 6.457031 0.078125 5.40625 0.078125 C 4.507812 0.078125 3.691406 -0.128906 2.953125 -0.546875 C 2.222656 -0.960938 1.644531 -1.546875 1.21875 -2.296875 C 0.800781 -3.046875 0.59375 -3.890625 0.59375 -4.828125 Z M 0.59375 -4.828125 "/></g></g></g><g fill="#ffffff" fill-opacity="1"><g transform="translate(58.075547, 24.448169)"><g><path d="M 7 -9.640625 L 7 -8.609375 L 4.375 -8.609375 L 4.375 0 L 3.109375 0 L 3.109375 -8.609375 L 0.46875 -8.609375 L 0.46875 -9.640625 Z M 7 -9.640625 "/></g></g></g><g fill="#ffffff" fill-opacity="1"><g transform="translate(69.701795, 24.448169)"><g><path d="M 2.328125 -9.640625 L 2.328125 0 L 1.0625 0 L 1.0625 -9.640625 Z M 2.328125 -9.640625 "/></g></g></g><g fill="#ffffff" fill-opacity="1"><g transform="translate(77.250679, 24.448169)"><g><path d="M 9.03125 -9.640625 L 5.390625 0 L 3.9375 0 L 0.296875 -9.640625 L 1.640625 -9.640625 L 4.671875 -1.328125 L 7.703125 -9.640625 Z M 9.03125 -9.640625 "/></g></g></g><g fill="#ffffff" fill-opacity="1"><g transform="translate(90.742838, 24.448169)"><g><path d="M 2.328125 -8.609375 L 2.328125 -5.390625 L 5.828125 -5.390625 L 5.828125 -4.359375 L 2.328125 -4.359375 L 2.328125 -1.03125 L 6.25 -1.03125 L 6.25 0 L 1.0625 0 L 1.0625 -9.65625 L 6.25 -9.65625 L 6.25 -8.609375 Z M 2.328125 -8.609375 "/></g></g></g></svg>